M48
METRIC,0000.00
T01C0.4
T02C0.7
T03C0.8
T04C0.9
T05C1.1
T06C1.2
T07C2.0
T08C3.2
T09C4.2
%
T01
X+006531Y+005694
X+006880Y+005346
X+006229Y+005298
X+006276Y+005057
X+005975Y+005232
X+005816Y+005597
X+005544Y+005282
X+005007Y+005282
X+004959Y+005550
X+005184Y+004766
X+005166Y+004584
X+005166Y+004393
X+005388Y+004425
X+005579Y+004425
X+005769Y+004425
X+006260Y+003822
X+005975Y+003614
X+006023Y+003377
X+006023Y+002933
X+005547Y+003187
X+005371Y+003533
X+005166Y+003803
X+004785Y+003695
X+004739Y+004107
X+004752Y+004361
X+004309Y+003218
X+003800Y+002488
X+005166Y+002520
X+007356Y+002837
X+007785Y+002425
X+008595Y+003123
X+009801Y+003472
X+009674Y+004393
X+009547Y+005663
X+008817Y+006804
X+008531Y+007060
X+007835Y+007007
X+007801Y+006647
X+007208Y+006911
X+007388Y+006012
X+007833Y+005758
X+007833Y+005250
X+007547Y+003980
X+006087Y+006997
X+005514Y+006947
X+005151Y+007346
X+004683Y+006735
X+004438Y+006636
X+004118Y+006139
X+004054Y+005917
X+004086Y+005473
X+003435Y+004980
X+003181Y+005060
X+002499Y+004679
X+002148Y+004740
X+001955Y+004742
X+002023Y+004425
X+002054Y+004139
X+002404Y+004203
X+001832Y+003726
X+001260Y+003980
X+001419Y+004901
X+001578Y+005091
X+001515Y+005314
X+001386Y+005486
X+001259Y+005677
X+002985Y+007632
X+003810Y+007465
X+004044Y+007346
X+004054Y+007917
X+005290Y+008468
X+005642Y+008711
X+006150Y+008903
X+006531Y+008676
X+007039Y+008457
X+007166Y+008171
X+007157Y+008810
X+007325Y+009251
X+006863Y+009202
X+006245Y+009346
X+006023Y+009664
X+005959Y+010807
X+006277Y+011029
X+006595Y+010775
X+008023Y+010680
X+008277Y+010648
X+008691Y+011283
X+009579Y+011379
X+010849Y+011569
X+011738Y+010553
X+011738Y+009155
X+010024Y+010108
X+008944Y+009029
X+007791Y+009251
X+007959Y+007645
X+009452Y+007886
X+009933Y+007803
X+005039Y+006362
X+002753Y+008520
X+002524Y+009769
X+002985Y+010172
X+002604Y+010581
X+004626Y+010362
X+004944Y+010362
X+002150Y+002329
X+002435Y+001917
X+012246Y+003250
T02
X+007801Y+011188
X+008055Y+011442
X+007801Y+011696
X+006722Y+011696
X+006467Y+011442
X+006722Y+011188
X+009071Y+011251
X+009071Y+009727
X+010087Y+008902
X+011103Y+009727
X+011103Y+011251
X+008055Y+008902
X+008055Y+007378
X+007864Y+006171
X+007103Y+006362
X+006848Y+006616
X+006848Y+006108
X+005769Y+006108
X+005515Y+006362
X+005769Y+006616
X+006976Y+003695
X+006722Y+003441
X+006976Y+003187
X+008055Y+003187
X+008309Y+003441
X+008055Y+003695
X+007864Y+004139
X+009388Y+004139
X+009388Y+006171
X+010087Y+007378
T03
X+002467Y+005663
X+003483Y+005663
X+002531Y+003352
X+002531Y+002869
X+001642Y+002518
X+001642Y+003702
T04
X+010405Y+001282
X+010398Y+001599
X+011548Y+001599
X+011865Y+001592
X+011865Y+002742
X+011484Y+006616
X+011237Y+006616
X+010087Y+006616
X+012634Y+006616
X+012754Y+007124
X+012373Y+011759
X+005642Y+011569
X+005388Y+011569
X+005134Y+011569
X+004880Y+011569
X+004626Y+011569
X+004372Y+011569
X+004118Y+011569
X+003864Y+011569
X+003610Y+011569
X+003356Y+011569
X+003102Y+011569
X+002848Y+011569
X+002594Y+011569
X+002340Y+011569
X+002086Y+011569
X+002785Y+005377
X+003166Y+005377
X+004245Y+005123
X+004531Y+005123
X+004531Y+004838
X+001673Y+004647
X+001673Y+004393
X+001419Y+004393
X+001419Y+004139
X+001673Y+004139
X+001419Y+004647
X+003292Y+001726
X+003546Y+001726
X+003800Y+001726
X+004054Y+001726
X+004309Y+001726
X+004562Y+001726
T05
X+008500Y+009727
X+008500Y+010067
X+008500Y+010407
X+008094Y+010237
X+008094Y+009897
X+007611Y+008058
X+007611Y+007718
X+007611Y+007378
X+007205Y+007548
X+007205Y+007888
X+008708Y+003695
X+009049Y+003695
X+009389Y+003695
X+009219Y+003289
X+008879Y+003289
T06
X+000816Y+012267
X+001578Y+012267
X+002340Y+012267
X+003102Y+012267
X+003864Y+012267
X+004626Y+012267
X+005388Y+012267
X+006150Y+012267
X+006912Y+012267
X+007674Y+012267
X+008436Y+012267
X+009198Y+012267
X+009960Y+012267
X+010722Y+012267
X+011484Y+012267
X+012246Y+012267
X+013008Y+012267
X+013262Y+012267
X+013262Y+011505
X+013262Y+010743
X+013262Y+009981
X+013262Y+009219
X+013262Y+008457
X+013262Y+007695
X+013262Y+006933
X+013262Y+006171
X+013262Y+005409
X+013262Y+004647
X+013262Y+003885
X+013262Y+003123
X+013262Y+002361
X+013262Y+001599
X+013262Y+000837
X+012500Y+000837
X+011738Y+000837
X+010976Y+000837
X+010214Y+000837
X+009452Y+000837
X+008690Y+000837
X+007928Y+000837
X+007166Y+000837
X+006404Y+000837
X+005642Y+000837
X+004880Y+000837
X+004118Y+000837
X+003356Y+000837
X+002594Y+000837
X+001832Y+000837
X+001578Y+000837
X+001324Y+000837
X+001070Y+000837
X+000816Y+000837
X+000816Y+001091
X+000816Y+001345
X+000816Y+001599
X+000816Y+002361
X+000816Y+003123
X+000816Y+003885
X+000816Y+004647
X+000816Y+005409
X+000816Y+006171
X+000816Y+006933
X+000816Y+007695
X+000816Y+008457
X+000816Y+009219
X+000816Y+009981
X+000816Y+010743
X+000816Y+011505
T07
X+008627Y+004012
X+009770Y+005155
X+008627Y+006298
X+009071Y+006997
X+007928Y+008140
X+009071Y+009283
X+010087Y+009346
X+010214Y+008140
X+011230Y+010489
X+010087Y+011632
X+008944Y+010489
X+007483Y+005155
T08
X+001500Y+011000
X+009071Y+008140
X+010087Y+010489
X+012500Y+011000
X+008627Y+005155
X+012500Y+002000
X+001500Y+002000
T09
X+006543Y+010067
X+005654Y+007718
X+009049Y+001738
T00
M30
