M48
METRIC,0000.00
T01C0.381
T02C0.4
T03C0.508
T04C0.6
T05C0.8
T06C0.864
T07C0.9
%
T01
X+002620Y+005499
X+002873Y+005492
X+002749Y+005727
X+002535Y+006356
X+001966Y+006379
X+001820Y+005938
X+001506Y+005633
X+001160Y+005512
X+001738Y+005260
X+001982Y+005496
X+002238Y+005289
X+001888Y+004712
X+001731Y+004369
X+001791Y+004080
X+002091Y+003872
X+002285Y+004075
X+002875Y+004059
X+002867Y+003897
X+002871Y+003740
X+003057Y+003718
X+003056Y+003552
X+003192Y+003448
X+003695Y+003613
X+003954Y+003547
X+003920Y+003256
X+004484Y+003540
X+004474Y+003852
X+004496Y+004016
X+004452Y+004274
X+004336Y+004702
X+004696Y+004702
X+005028Y+005025
X+005567Y+005492
X+005851Y+005606
X+005847Y+005792
X+005824Y+006352
X+005480Y+006480
X+005296Y+006224
X+004634Y+006356
X+004233Y+006468
X+004224Y+006216
X+004488Y+005872
X+004632Y+005800
X+003611Y+006199
X+003251Y+006205
X+003713Y+005154
X+003377Y+005045
X+003373Y+004728
X+003712Y+004136
X+003936Y+004144
X+003680Y+003880
X+002696Y+003072
X+002554Y+003244
X+002335Y+003171
X+002089Y+003231
X+002220Y+003423
X+002087Y+002951
X+002424Y+002559
X+002552Y+002296
X+002568Y+001952
X+003008Y+001944
X+003127Y+001782
X+003312Y+001768
X+003323Y+002032
X+003493Y+002028
X+003632Y+002112
X+003876Y+002456
X+004246Y+002378
X+004238Y+002170
X+004260Y+001904
X+004453Y+002688
X+004995Y+002683
X+005222Y+002566
X+005209Y+002375
X+005217Y+002192
X+005225Y+002021
X+005338Y+001870
X+005440Y+002353
X+005619Y+002740
X+005249Y+003013
X+005402Y+003153
X+005394Y+003498
X+005649Y+003756
X+005776Y+003629
X+005770Y+003242
X+006218Y+002552
X+006513Y+002599
X+006601Y+002773
X+006818Y+003155
X+006632Y+003747
X+006586Y+004137
X+006753Y+004165
X+006745Y+004368
X+006304Y+004147
X+006176Y+004409
X+005871Y+004407
X+005636Y+004514
X+005569Y+004326
X+005387Y+004330
X+005435Y+004022
X+005101Y+004181
X+005744Y+005033
X+006046Y+005025
X+006712Y+005309
X+007073Y+005029
X+007751Y+005274
X+007596Y+006245
X+006890Y+006356
X+006894Y+006096
X+006890Y+005796
X+006536Y+006224
X+006533Y+006478
X+007681Y+003788
X+007573Y+002874
X+007206Y+002522
X+002188Y+002201
X+001157Y+002848
T02
X+001752Y+007048
X+000848Y+004184
X+005192Y+000864
X+008104Y+005328
T03
X+007218Y+004029
X+007218Y+003902
X+007218Y+003775
X+007218Y+003648
X+007218Y+003521
X+007218Y+003394
X+007218Y+003267
X+007218Y+003140
T04
X+001528Y+004928
X+002028Y+004928
T05
X+001452Y+003864
X+001706Y+003864
X+001706Y+003610
X+001706Y+003356
X+001706Y+003102
X+001452Y+003102
X+001452Y+003356
X+001452Y+003610
X+001452Y+002848
X+001706Y+002848
X+002061Y+001299
X+002315Y+001299
X+002569Y+001299
X+002823Y+001299
X+003077Y+001299
X+003331Y+001299
X+003585Y+001299
X+003839Y+001299
X+006227Y+001299
X+006481Y+001299
X+006735Y+001299
X+006989Y+001299
X+007116Y+005490
X+007370Y+005490
X+006329Y+005490
X+006075Y+005490
X+005084Y+005490
X+004830Y+005490
X+004932Y+006684
X+004678Y+006684
X+004424Y+006684
X+004170Y+006684
X+003916Y+006684
X+003662Y+006684
X+002112Y+006684
X+001858Y+006684
X+005579Y+006684
X+005833Y+006684
X+006087Y+006684
X+006341Y+006684
X+006595Y+006684
X+006849Y+006684
T06
X+001668Y+001896
X+002176Y+001896
T07
X+001264Y+006760
X+001264Y+001248
X+007760Y+001248
X+007760Y+006760
T00
M30
