M48
METRIC,0000.00
T01C0.381
T02C0.5
T03C0.8
%
T01
X+003235Y+005128
X+003228Y+005618
X+002194Y+006004
X+002778Y+004454
X+003057Y+004518
X+003692Y+004099
X+004310Y+003621
X+005312Y+002776
X+005534Y+002359
X+005166Y+002149
X+004959Y+002088
X+007363Y+003769
X+007299Y+005128
X+006525Y+005089
X+006455Y+005464
X+005546Y+005621
X+005128Y+005775
X+004999Y+005990
X+005448Y+006174
X+001648Y+003489
T02
X+001704Y+007102
X+000880Y+006070
X+004168Y+000878
X+008152Y+005878
T03
X+004951Y+005025
X+004950Y+006690
X+004696Y+006690
X+004442Y+006690
X+004188Y+006690
X+003934Y+006690
X+003680Y+006690
X+002816Y+006258
X+002562Y+006258
X+002130Y+006690
X+001876Y+006690
X+001470Y+006245
X+001470Y+005991
X+001470Y+005737
X+001470Y+005483
X+001470Y+005229
X+001470Y+004975
X+001470Y+004721
X+001470Y+004467
X+002156Y+004010
X+002410Y+004010
X+002410Y+003756
X+002156Y+003756
X+002156Y+003502
X+002410Y+003502
X+002410Y+003248
X+002156Y+003248
X+002156Y+002994
X+002410Y+002994
X+003273Y+002613
X+003527Y+002613
X+003781Y+002613
X+003794Y+002207
X+003540Y+002207
X+003286Y+002207
X+003337Y+001305
X+003083Y+001305
X+002829Y+001305
X+002575Y+001305
X+002321Y+001305
X+002067Y+001305
X+001356Y+002333
X+001356Y+002588
X+003591Y+001305
X+003845Y+001305
X+004288Y+002285
X+004288Y+002971
X+005458Y+003197
X+005597Y+001305
X+006245Y+001305
X+006499Y+001305
X+006753Y+001305
X+007007Y+001305
X+006855Y+006690
X+006601Y+006690
X+006347Y+006690
X+006093Y+006690
X+005839Y+006690
X+005585Y+006690
T00
M30
